HIERARCHY
ROOT Hips
{
	OFFSET -35.298439 92.216103 -74.654198
	CHANNELS 6 Xposition Yposition Zposition Zrotation Yrotation Xrotation 
	JOINT LeftUpLeg
	{
		OFFSET 0.103462 1.857831 10.548502
		CHANNELS 3 Zrotation Yrotation Xrotation
		JOINT LeftLeg
		{
			OFFSET 43.500008 -0.000027 -0.000004
			CHANNELS 3 Zrotation Yrotation Xrotation
			JOINT LeftFoot
			{
				OFFSET 42.372200 0.000011 -0.000002
				CHANNELS 3 Zrotation Yrotation Xrotation
				JOINT LeftToe
				{
					OFFSET 17.299999 -0.000001 -0.000002
					CHANNELS 3 Zrotation Yrotation Xrotation
					End Site
					{
						OFFSET 0.000000 0.000000 0.000000
					}
				}
			}
		}
	}
	JOINT RightUpLeg
	{
		OFFSET 0.103458 1.857828 -10.548501
		CHANNELS 3 Zrotation Yrotation Xrotation
		JOINT RightLeg
		{
			OFFSET 43.500038 -0.000031 0.000011
			CHANNELS 3 Zrotation Yrotation Xrotation
			JOINT RightFoot
			{
				OFFSET 42.372257 -0.000004 0.000010
				CHANNELS 3 Zrotation Yrotation Xrotation
				JOINT RightToe
				{
					OFFSET 17.299994 -0.000005 0.000004
					CHANNELS 3 Zrotation Yrotation Xrotation
					End Site
					{
						OFFSET 0.000000 0.000000 0.000000
					}
				}
			}
		}
	}
	JOINT Spine
	{
		OFFSET 6.901966 -2.603733 0.000000
		CHANNELS 3 Zrotation Yrotation Xrotation
		JOINT Spine1
		{
			OFFSET 12.588101 0.000002 0.000000
			CHANNELS 3 Zrotation Yrotation Xrotation
			JOINT Spine2
			{
				OFFSET 12.343201 0.000004 -0.000002
				CHANNELS 3 Zrotation Yrotation Xrotation
				JOINT Neck
				{
					OFFSET 25.832895 -0.000004 0.000002
					CHANNELS 3 Zrotation Yrotation Xrotation
					JOINT Head
					{
						OFFSET 11.766604 0.000011 0.000001
						CHANNELS 3 Zrotation Yrotation Xrotation
						End Site
						{
							OFFSET 0.000000 0.000000 0.000000
						}
					}
				}
				JOINT LeftShoulder
				{
					OFFSET 19.745903 -1.480368 6.000108
					CHANNELS 3 Zrotation Yrotation Xrotation
					JOINT LeftArm
					{
						OFFSET 11.284126 -0.000007 -0.000022
						CHANNELS 3 Zrotation Yrotation Xrotation
						JOINT LeftForeArm
						{
							OFFSET 33.000053 0.000001 0.000028
							CHANNELS 3 Zrotation Yrotation Xrotation
							JOINT LeftHand
							{
								OFFSET 25.200005 0.000019 0.000013
								CHANNELS 3 Zrotation Yrotation Xrotation
								End Site
								{
									OFFSET 0.000000 0.000000 0.000000
								}
							}
						}
					}
				}
				JOINT RightShoulder
				{
					OFFSET 19.746094 -1.480373 -6.000072
					CHANNELS 3 Zrotation Yrotation Xrotation
					JOINT RightArm
					{
						OFFSET 11.284138 -0.000017 -0.000010
						CHANNELS 3 Zrotation Yrotation Xrotation
						JOINT RightForeArm
						{
							OFFSET 33.000092 0.000013 0.000009
							CHANNELS 3 Zrotation Yrotation Xrotation
							JOINT RightHand
							{
								OFFSET 25.199776 0.000139 0.000415
								CHANNELS 3 Zrotation Yrotation Xrotation
								End Site
								{
									OFFSET 0.000000 0.000000 0.000000
								}
							}
						}
					}
				}
			}
		}
	}
}
MOTION
Frames: 7
Frame Time: 0.033333
-35.298439 92.216103 -74.654198 91.977294 5.851160 92.795913 -174.093790 -0.961488 178.825445 -9.130144 -1.460297 -8.338586 72.696702 4.686512 -4.387183 21.454550 0.003090 0.000001 -172.750046 5.414210 -173.946613 -11.023545 3.235911 10.846954 77.949363 -6.461476 5.185051 21.454558 -0.003096 -0.000016 7.416942 -0.253183 -0.049603 4.799245 -0.479318 -0.105372 4.481116 -0.479895 -0.102493 -0.720790 -9.484711 -6.383765 -18.287763 13.550243 -13.449828 -102.628674 -86.593719 -79.387398 -6.530757 17.233752 -11.680386 -24.081801 -16.851813 1.244756 14.534931 -5.834938 23.086077 -110.929061 79.569621 71.550712 -7.353120 -14.918929 17.328929 -21.056117 15.419792 -1.131179 13.531058 9.279306 -0.503992 
-35.308632 92.215118 -74.648788 91.974993 5.858833 92.805639 -174.083313 -0.973602 178.825445 -9.130145 -1.460305 -8.332518 72.700807 4.682071 -4.387184 21.454551 0.003084 -0.000001 -172.735170 5.400108 -173.948089 -11.023533 3.235921 10.856185 77.949363 -6.469193 5.180235 21.454558 -0.003107 -0.000017 7.416931 -0.253183 -0.049596 4.799240 -0.479321 -0.105382 4.481125 -0.479891 -0.102490 -0.724941 -9.489353 -6.383760 -18.317113 13.541076 -13.449834 -102.627547 -86.599989 -79.388013 -6.521957 17.213030 -11.689697 -24.059656 -16.843921 1.244749 14.540120 -5.811375 23.041071 -110.931588 79.563740 71.548636 -7.336086 -14.918929 17.305705 -21.016856 15.409947 -1.131191 13.477668 9.221517 -0.635849 
-35.338058 92.213043 -74.641983 91.968033 5.873909 92.844647 -174.070089 -1.005709 178.830950 -9.132204 -1.460498 -8.307219 72.709017 4.664801 -4.387178 21.454551 0.003099 0.000000 -172.706224 5.360995 -173.959372 -11.023543 3.235917 10.890796 77.955292 -6.496482 5.169625 21.454557 -0.003110 -0.000017 7.416944 -0.253179 -0.049603 4.799228 -0.479311 -0.105375 4.481136 -0.479905 -0.102484 -0.736214 -9.498786 -6.383775 -18.399404 13.510677 -13.449825 -102.644247 -86.628321 -79.368806 -6.483458 17.146360 -11.730514 -23.985761 -16.781800 1.239700 14.484169 -5.774632 22.973635 -110.994720 79.554150 71.485839 -7.279738 -14.916588 17.227048 -20.941795 15.384511 -1.131189 13.355969 9.078500 -1.000157 
-35.371311 92.211739 -74.647438 91.952795 5.878650 92.879112 -174.081141 -1.052996 178.845621 -9.146694 -1.473829 -8.290892 72.716981 4.655538 -4.380876 21.454551 0.003086 -0.000001 -172.703942 5.313403 -173.997566 -11.025212 3.235922 10.936047 77.959690 -6.530732 5.161411 21.454562 -0.003091 -0.000015 7.416943 -0.253176 -0.049599 4.799236 -0.479314 -0.105375 4.481136 -0.479912 -0.102484 -0.748107 -9.508273 -6.383772 -18.433912 13.480878 -13.444596 -102.642799 -86.660409 -79.367727 -6.452541 17.072210 -11.767478 -23.891442 -16.684870 1.232143 14.404490 -5.749134 22.974745 -111.062414 79.548331 71.417954 -7.233254 -14.907200 17.109573 -20.880411 15.350078 -1.131191 13.249778 9.000419 -1.347920 
-35.402779 92.211311 -74.660507 91.941299 5.878679 92.910797 -174.104186 -1.093404 178.857861 -9.156096 -1.485423 -8.278168 72.718654 4.650743 -4.367582 21.454550 0.003079 -0.000000 -172.724774 5.274795 -174.037168 -11.041500 3.235905 10.977916 77.966725 -6.562227 5.155086 21.454562 -0.003116 -0.000015 7.416939 -0.253180 -0.049592 4.799235 -0.479311 -0.105378 4.481127 -0.479898 -0.102487 -0.758563 -9.516500 -6.386857 -18.441376 13.445579 -13.437690 -102.655865 -86.683884 -79.352981 -6.453290 16.982992 -11.790534 -23.783829 -16.560550 1.222663 14.381802 -5.767104 22.903412 -111.073329 79.538898 71.407688 -7.222037 -14.893933 16.945472 -20.783694 15.297409 -1.126638 13.136069 9.089886 -1.697283 
-35.430119 92.211502 -74.674873 91.938397 5.876534 92.959373 -174.121207 -1.120998 178.888187 -9.154090 -1.491997 -8.268269 72.712787 4.649866 -4.346340 21.454551 0.003101 -0.000000 -172.738066 5.246714 -174.050405 -11.055934 3.235924 11.012887 77.973405 -6.588050 5.151805 21.454560 -0.003097 -0.000016 7.416944 -0.253182 -0.049592 4.799236 -0.479316 -0.109012 4.481127 -0.479900 -0.106113 -0.744299 -9.512219 -6.394923 -18.460669 13.384014 -13.423359 -102.780222 -86.700161 -79.226650 -6.504471 16.870188 -11.778261 -23.634415 -16.413124 1.211107 14.392400 -5.802683 22.799190 -111.052879 79.535839 71.428411 -7.229941 -14.870003 16.787890 -20.674969 15.201479 -1.119202 12.944653 9.330253 -2.223280 
-35.454041 92.212318 -74.690208 91.941634 5.874489 93.019814 -174.131944 -1.139798 178.928949 -9.140203 -1.495174 -8.257788 72.697562 4.648783 -4.325207 21.454548 0.003081 -0.000001 -172.745852 5.224901 -174.025010 -11.068621 3.232752 11.030016 77.978446 -6.600478 5.151186 21.454560 -0.003104 -0.000017 7.416938 -0.253182 -0.055184 4.805056 -0.479316 -0.120224 4.486948 -0.479901 -0.117314 -0.731589 -9.492699 -6.406131 -18.495338 13.323040 -13.412026 -102.660851 -86.714791 -79.345345 -6.567760 16.762840 -11.765618 -23.479236 -16.237419 1.197693 14.396750 -5.769386 22.735113 -110.996223 79.532075 71.486003 -7.260736 -14.831459 16.631019 -20.568309 15.130069 -1.113363 12.667640 9.350841 -3.505290 
